<?xml version="1.0" encoding="UTF-8"?>
<svg xmlns="http://www.w3.org/2000/svg"
     xmlns:xlink="http://www.w3.org/1999/xlink"
     xmlns:gadfly="http://www.gadflyjl.org/ns"
     version="1.2"
     width="152.4mm" height="76.2mm" viewBox="0 0 152.4 76.2"
     stroke="none"
     fill="#000000"
     stroke-width="0.3"
     font-size="3.88"
>
<g class="plotroot xscalable yscalable" id="img-9a57ae72-1">
  <g font-size="3.88" font-family="'PT Sans','Helvetica Neue','Helvetica',sans-serif" fill="#564A55" stroke="#000000" stroke-opacity="0.000" id="img-9a57ae72-2">
    <text x="83.26" y="66.08" text-anchor="middle" dy="0.6em">x</text>
  </g>
  <g class="guide xlabels" font-size="2.82" font-family="'PT Sans Caption','Helvetica Neue','Helvetica',sans-serif" fill="#6C606B" id="img-9a57ae72-3">
    <text x="21.11" y="59.97" text-anchor="middle" dy="0.6em">-1000</text>
    <text x="52.19" y="59.97" text-anchor="middle" dy="0.6em">-500</text>
    <text x="83.26" y="59.97" text-anchor="middle" dy="0.6em">0</text>
    <text x="114.33" y="59.97" text-anchor="middle" dy="0.6em">500</text>
    <text x="145.4" y="59.97" text-anchor="middle" dy="0.6em">1000</text>
  </g>
<g clip-path="url(#img-9a57ae72-4)">
  <g id="img-9a57ae72-5">
    <g pointer-events="visible" opacity="1" fill="#FFFFFF" stroke="#000000" stroke-opacity="0.000" class="guide background" id="img-9a57ae72-6">
      <rect x="19.11" y="5" width="128.29" height="53.97"/>
    </g>
    <g class="guide ygridlines xfixed" stroke-dasharray="0.5,0.5" stroke-width="0.2" stroke="#D0D0E0" id="img-9a57ae72-7">
      <path fill="none" d="M19.11,56.97 L 147.4 56.97"/>
      <path fill="none" d="M19.11,40.31 L 147.4 40.31"/>
      <path fill="none" d="M19.11,23.66 L 147.4 23.66"/>
      <path fill="none" d="M19.11,7 L 147.4 7"/>
    </g>
    <g class="guide xgridlines yfixed" stroke-dasharray="0.5,0.5" stroke-width="0.2" stroke="#D0D0E0" id="img-9a57ae72-8">
      <path fill="none" d="M21.11,5 L 21.11 58.97"/>
      <path fill="none" d="M52.19,5 L 52.19 58.97"/>
      <path fill="none" d="M83.26,5 L 83.26 58.97"/>
      <path fill="none" d="M114.33,5 L 114.33 58.97"/>
      <path fill="none" d="M145.4,5 L 145.4 58.97"/>
    </g>
    <g class="plotpanel" id="img-9a57ae72-9">
      <g stroke-width="0.3" fill="#000000" fill-opacity="0.000" class="geometry" stroke-dasharray="none" stroke="#FF0000" id="img-9a57ae72-10">
        <path fill="none" d="M39.58,56.97 L 40.08 56.97 40.58 56.97 41.08 56.97 41.58 56.97 42.08 56.97 42.58 56.97 43.08 56.97 43.58 56.97 44.07 56.97 44.57 56.97 45.07 56.97 45.57 56.97 46.07 56.97 46.57 56.97 47.07 56.97 47.57 56.97 48.07 56.97 48.57 56.97 49.07 56.97 49.56 56.97 50.06 56.97 50.56 56.97 51.06 56.97 51.56 56.97 52.06 56.97 52.56 56.97 53.06 56.97 53.56 56.97 54.06 56.97 54.56 56.97 55.06 56.97 55.55 56.97 56.05 56.97 56.55 56.97 57.05 56.97 57.55 56.97 58.05 56.97 58.55 56.97 59.05 56.97 59.55 56.97 60.05 56.97 60.55 56.97 61.05 56.97 61.54 56.97 62.04 56.97 62.54 56.97 63.04 56.97 63.54 56.97 64.04 56.97 64.54 56.97 65.04 56.97 65.54 56.97 66.04 56.97 66.54 56.97 67.03 56.97 67.53 56.97 68.03 56.97 68.53 56.97 69.03 56.97 69.53 56.97 70.03 56.97 70.53 56.97 71.03 56.97 71.53 56.97 72.03 56.97 72.53 56.97 73.02 56.97 73.52 56.97 74.02 56.97 74.52 56.97 75.02 56.97 75.52 56.97 76.02 56.97 76.52 56.97 77.02 56.97 77.52 56.97 78.02 56.97 78.52 56.97 79.01 56.97 79.51 56.97 80.01 56.97 80.51 56.97 81.01 56.97 81.51 56.97 82.01 56.97 82.51 56.96 83.01 54.54 83.51 23.95 84.01 23.66 84.5 23.66 85 23.65 85.5 20.12 86 56.97 86.5 56.97 87 56.97 87.5 56.97 88 56.97 88.5 56.97 89 56.97 89.5 56.97 90 56.97 90.49 56.97 90.99 56.97 91.49 56.97 91.99 56.97 92.49 56.97 92.99 56.97 93.49 56.97 93.99 56.97 94.49 56.97 94.99 56.97 95.49 56.97 95.99 56.97 96.48 56.97 96.98 56.97 97.48 56.97 97.98 56.97 98.48 56.97 98.98 56.97 99.48 56.97 99.98 56.97 100.48 56.97 100.98 56.97 101.48 56.97 101.97 56.97 102.47 56.97 102.97 56.97 103.47 56.97 103.97 56.97 104.47 56.97 104.97 56.97 105.47 56.97 105.97 56.97 106.47 56.97 106.97 56.97 107.47 56.97 107.96 56.97 108.46 56.97 108.96 56.97 109.46 56.97 109.96 56.97 110.46 56.97 110.96 56.97 111.46 56.97 111.96 56.97 112.46 56.97 112.96 56.97 113.45 56.97 113.95 56.97 114.45 56.97 114.95 56.97 115.45 56.97 115.95 56.97 116.45 56.97 116.95 56.97 117.45 56.97 117.95 56.97 118.45 56.97 118.95 56.97 119.44 56.97 119.94 56.97 120.44 56.97 120.94 56.97 121.44 56.97 121.94 56.97 122.44 56.97 122.94 56.97 123.44 56.97 123.94 56.97 124.44 56.97 124.94 56.97 125.43 56.97 125.93 56.97 126.43 56.97 126.93 56.97"/>
      </g>
    </g>
  </g>
</g>
  <g class="guide ylabels" font-size="2.82" font-family="'PT Sans Caption','Helvetica Neue','Helvetica',sans-serif" fill="#6C606B" id="img-9a57ae72-11">
    <text x="18.11" y="56.97" text-anchor="end" dy="0.35em">0.0</text>
    <text x="18.11" y="40.31" text-anchor="end" dy="0.35em">0.5</text>
    <text x="18.11" y="23.66" text-anchor="end" dy="0.35em">1.0</text>
    <text x="18.11" y="7" text-anchor="end" dy="0.35em">1.5</text>
  </g>
  <g font-size="3.88" font-family="'PT Sans','Helvetica Neue','Helvetica',sans-serif" fill="#564A55" stroke="#000000" stroke-opacity="0.000" id="img-9a57ae72-12">
    <text x="8.94" y="29.98" text-anchor="middle" dy="0.35em" transform="rotate(-90, 8.94, 31.98)">f(x)</text>
  </g>
</g>
<defs>
  <clipPath id="img-9a57ae72-4">
  <path d="M19.11,5 L 147.4 5 147.4 58.97 19.11 58.97" />
</clipPath>
</defs>
</svg>
