<?xml version="1.0" encoding="UTF-8"?>
<svg xmlns="http://www.w3.org/2000/svg"
     xmlns:xlink="http://www.w3.org/1999/xlink"
     xmlns:gadfly="http://www.gadflyjl.org/ns"
     version="1.2"
     width="152.4mm" height="76.2mm" viewBox="0 0 152.4 76.2"
     stroke="none"
     fill="#000000"
     stroke-width="0.3"
     font-size="3.88"
>
<g class="plotroot xscalable yscalable" id="img-727e368c-1">
  <g font-size="3.88" font-family="'PT Sans','Helvetica Neue','Helvetica',sans-serif" fill="#564A55" stroke="#000000" stroke-opacity="0.000" id="img-727e368c-2">
    <text x="83.02" y="64.59" text-anchor="middle" dy="0.6em">x</text>
  </g>
  <g class="guide xlabels" font-size="2.82" font-family="'PT Sans Caption','Helvetica Neue','Helvetica',sans-serif" fill="#6C606B" id="img-727e368c-3">
    <text x="20.63" y="57.91" text-anchor="middle" dy="0.6em">-10</text>
    <text x="51.82" y="57.91" text-anchor="middle" dy="0.6em">-5</text>
    <text x="83.02" y="57.91" text-anchor="middle" dy="0.6em">0</text>
    <text x="114.21" y="57.91" text-anchor="middle" dy="0.6em">5</text>
    <text x="145.4" y="57.91" text-anchor="middle" dy="0.6em">10</text>
  </g>
<g clip-path="url(#img-727e368c-4)">
  <g id="img-727e368c-5">
    <g pointer-events="visible" opacity="1" fill="#FFFFFF" stroke="#000000" stroke-opacity="0.000" class="guide background" id="img-727e368c-6">
      <rect x="18.63" y="5" width="128.77" height="51.91"/>
    </g>
    <g class="guide ygridlines xfixed" stroke-dasharray="0.5,0.5" stroke-width="0.2" stroke="#D0D0E0" id="img-727e368c-7">
      <path fill="none" d="M18.63,54.91 L 147.4 54.91"/>
      <path fill="none" d="M18.63,30.96 L 147.4 30.96"/>
      <path fill="none" d="M18.63,7 L 147.4 7"/>
    </g>
    <g class="guide xgridlines yfixed" stroke-dasharray="0.5,0.5" stroke-width="0.2" stroke="#D0D0E0" id="img-727e368c-8">
      <path fill="none" d="M20.63,5 L 20.63 56.91"/>
      <path fill="none" d="M51.82,5 L 51.82 56.91"/>
      <path fill="none" d="M83.02,5 L 83.02 56.91"/>
      <path fill="none" d="M114.21,5 L 114.21 56.91"/>
      <path fill="none" d="M145.4,5 L 145.4 56.91"/>
    </g>
    <g class="plotpanel" id="img-727e368c-9">
      <g stroke-width="0.3" fill="#000000" fill-opacity="0.000" class="geometry" stroke-dasharray="none" stroke="#FF0000" id="img-727e368c-10">
        <path fill="none" d="M20.63,54.89 L 21.13 54.89 21.63 54.89 22.13 54.89 22.64 54.89 23.14 54.88 23.64 54.88 24.14 54.88 24.64 54.88 25.14 54.87 25.64 54.87 26.14 54.87 26.64 54.86 27.15 54.86 27.65 54.86 28.15 54.85 28.65 54.85 29.15 54.84 29.65 54.84 30.15 54.83 30.65 54.82 31.15 54.82 31.66 54.81 32.16 54.8 32.66 54.79 33.16 54.79 33.66 54.78 34.16 54.77 34.66 54.76 35.16 54.74 35.66 54.73 36.17 54.72 36.67 54.7 37.17 54.69 37.67 54.67 38.17 54.65 38.67 54.64 39.17 54.62 39.67 54.6 40.17 54.57 40.67 54.55 41.18 54.52 41.68 54.49 42.18 54.46 42.68 54.43 43.18 54.4 43.68 54.36 44.18 54.32 44.68 54.28 45.18 54.24 45.69 54.19 46.19 54.14 46.69 54.09 47.19 54.03 47.69 53.97 48.19 53.91 48.69 53.84 49.19 53.77 49.69 53.69 50.2 53.61 50.7 53.52 51.2 53.42 51.7 53.32 52.2 53.22 52.7 53.11 53.2 52.99 53.7 52.86 54.2 52.73 54.7 52.58 55.21 52.43 55.71 52.27 56.21 52.1 56.71 51.93 57.21 51.74 57.71 51.54 58.21 51.32 58.71 51.1 59.21 50.86 59.72 50.62 60.22 50.35 60.72 50.08 61.22 49.79 61.72 49.48 62.22 49.16 62.72 48.82 63.22 48.46 63.72 48.09 64.23 47.7 64.73 47.29 65.23 46.87 65.73 46.42 66.23 45.96 66.73 45.47 67.23 44.97 67.73 44.44 68.23 43.9 68.74 43.33 69.24 42.74 69.74 42.14 70.24 41.51 70.74 40.86 71.24 40.19 71.74 39.51 72.24 38.81 72.74 38.08 73.24 37.35 73.75 36.59 74.25 35.82 74.75 35.04 75.25 34.25 75.75 33.44 76.25 32.63 76.75 31.81 77.25 30.98 77.75 30.15 78.26 29.32 78.76 28.49 79.26 27.66 79.76 26.83 80.26 26.01 80.76 25.2 81.26 24.4 81.76 23.61 82.26 22.84 82.77 22.08 83.27 21.33 83.77 20.61 84.27 19.9 84.77 19.22 85.27 18.55 85.77 17.91 86.27 17.3 86.77 16.7 87.27 16.13 87.78 15.59 88.28 15.06 88.78 14.56 89.28 14.09 89.78 13.64 90.28 13.21 90.78 12.81 91.28 12.42 91.78 12.06 92.29 11.72 92.79 11.4 93.29 11.1 93.79 10.81 94.29 10.55 94.79 10.3 95.29 10.07 95.79 9.85 96.29 9.64 96.8 9.45 97.3 9.28 97.8 9.11 98.3 8.96 98.8 8.81 99.3 8.68 99.8 8.56 100.3 8.44 100.8 8.33 101.31 8.23 101.81 8.14 102.31 8.06 102.81 7.98 103.31 7.9 103.81 7.83 104.31 7.77 104.81 7.71 105.31 7.66 105.81 7.61 106.32 7.56 106.82 7.52 107.32 7.48 107.82 7.44 108.32 7.41 108.82 7.38 109.32 7.35 109.82 7.32 110.32 7.3 110.83 7.28 111.33 7.25 111.83 7.23 112.33 7.22 112.83 7.2 113.33 7.18 113.83 7.17 114.33 7.16 114.83 7.15 115.34 7.13 115.84 7.12 116.34 7.11 116.84 7.11 117.34 7.1 117.84 7.09 118.34 7.08 118.84 7.08 119.34 7.07 119.85 7.07 120.35 7.06 120.85 7.06 121.35 7.05 121.85 7.05 122.35 7.04 122.85 7.04 123.35 7.04 123.85 7.03 124.35 7.03 124.86 7.03 125.36 7.03 125.86 7.02 126.36 7.02 126.86 7.02 127.36 7.02 127.86 7.02 128.36 7.02 128.86 7.02 129.37 7.01 129.87 7.01 130.37 7.01 130.87 7.01 131.37 7.01 131.87 7.01 132.37 7.01 132.87 7.01 133.37 7.01 133.88 7.01 134.38 7.01 134.88 7.01 135.38 7.01 135.88 7.01 136.38 7 136.88 7 137.38 7 137.88 7 138.38 7 138.89 7 139.39 7 139.89 7 140.39 7 140.89 7 141.39 7 141.89 7 142.39 7 142.89 7 143.4 7 143.9 7 144.4 7 144.9 7 145.4 7"/>
      </g>
    </g>
  </g>
</g>
  <g class="guide ylabels" font-size="2.82" font-family="'PT Sans Caption','Helvetica Neue','Helvetica',sans-serif" fill="#6C606B" id="img-727e368c-11">
    <text x="17.63" y="54.91" text-anchor="end" dy="0.35em">0.0</text>
    <text x="17.63" y="30.96" text-anchor="end" dy="0.35em">0.5</text>
    <text x="17.63" y="7" text-anchor="end" dy="0.35em">1.0</text>
  </g>
  <g font-size="3.88" font-family="'PT Sans','Helvetica Neue','Helvetica',sans-serif" fill="#564A55" stroke="#000000" stroke-opacity="0.000" id="img-727e368c-12">
    <text x="8.81" y="28.96" text-anchor="middle" dy="0.35em" transform="rotate(-90, 8.81, 30.96)">f(x)</text>
  </g>
</g>
<defs>
  <clipPath id="img-727e368c-4">
  <path d="M18.63,5 L 147.4 5 147.4 56.91 18.63 56.91" />
</clipPath>
</defs>
</svg>
